<svg width="25" height="25" viewBox="0 0 25 25" fill="none" xmlns="http://www.w3.org/2000/svg">
<g clip-path="url(#clip0_9_211)">
<path d="M25 17.6673V22.8756C25 23.7045 24.6708 24.4993 24.0847 25.0854C23.4987 25.6714 22.7038 26.0007 21.875 26.0007H16.6667C15.2053 25.9992 13.77 25.6134 12.5048 24.8821C11.2396 24.1507 10.189 23.0996 9.45833 21.834C10.2436 21.8284 11.0262 21.7418 11.7937 21.5756C12.3783 22.3065 13.1198 22.8965 13.9633 23.3019C14.8069 23.7072 15.7308 23.9176 16.6667 23.9173H21.875C22.1513 23.9173 22.4162 23.8076 22.6116 23.6122C22.8069 23.4169 22.9167 23.1519 22.9167 22.8756V17.6673C22.9164 16.7311 22.7054 15.807 22.2993 14.9634C21.8932 14.1198 21.3025 13.3785 20.5708 12.7944C20.7384 12.027 20.8263 11.2444 20.8333 10.459C22.0989 11.1897 23.1501 12.2403 23.8814 13.5055C24.6127 14.7707 24.9985 16.206 25 17.6673ZM18.726 11.0538C18.8235 9.71173 18.6309 8.36444 18.1613 7.10346C17.6917 5.84247 16.9562 4.69734 16.0048 3.74588C15.0533 2.79441 13.9082 2.05891 12.6472 1.58935C11.3862 1.11979 10.0389 0.927183 8.69687 1.02461C6.31866 1.2962 4.1218 2.42791 2.51997 4.20663C0.918153 5.98535 0.0219033 8.28833 0 10.6819L0 15.9319C0 18.5694 1.56979 19.7506 3.125 19.7506H9.0625C11.4571 19.73 13.7615 18.8344 15.5414 17.2325C17.3214 15.6305 18.4541 13.433 18.726 11.0538ZM14.5312 5.22044C15.2708 5.96159 15.8425 6.85294 16.2076 7.83418C16.5728 8.81541 16.723 9.86364 16.6479 10.9079C16.4256 12.7659 15.5318 14.4786 14.1347 15.7235C12.7377 16.9684 10.9337 17.6597 9.0625 17.6673H3.125C2.15833 17.6673 2.08333 16.3392 2.08333 15.9319V10.6819C2.09202 8.81146 2.78401 7.00867 4.02908 5.61281C5.27415 4.21695 6.98645 3.32426 8.84375 3.10273C9.01667 3.09023 9.18958 3.08398 9.3625 3.08398C10.3222 3.08309 11.2726 3.27131 12.1595 3.63789C13.0463 4.00448 13.8523 4.54224 14.5312 5.22044Z" fill="white"/>
</g>
<defs>
<clipPath id="clip0_9_211">
<rect width="25" height="25" fill="white"/>
</clipPath>
</defs>
</svg>
