<svg width="25" height="25" viewBox="0 0 25 25" fill="none" xmlns="http://www.w3.org/2000/svg">
<g clip-path="url(#clip0_12_45)">
<path d="M21.7917 4.16667H18.5625C18.3207 2.99105 17.6811 1.93474 16.7513 1.17575C15.8215 0.41676 14.6585 0.00151513 13.4583 0L11.375 0C10.1748 0.00151513 9.01179 0.41676 8.08203 1.17575C7.15227 1.93474 6.5126 2.99105 6.27083 4.16667H3.04167C2.7654 4.16667 2.50045 4.27641 2.3051 4.47176C2.10975 4.66711 2 4.93207 2 5.20833C2 5.4846 2.10975 5.74955 2.3051 5.9449C2.50045 6.14025 2.7654 6.25 3.04167 6.25H4.08333V19.7917C4.08499 21.1725 4.63425 22.4963 5.61065 23.4727C6.58704 24.4491 7.91084 24.9983 9.29167 25H15.5417C16.9225 24.9983 18.2463 24.4491 19.2227 23.4727C20.1991 22.4963 20.7483 21.1725 20.75 19.7917V6.25H21.7917C22.0679 6.25 22.3329 6.14025 22.5282 5.9449C22.7236 5.74955 22.8333 5.4846 22.8333 5.20833C22.8333 4.93207 22.7236 4.66711 22.5282 4.47176C22.3329 4.27641 22.0679 4.16667 21.7917 4.16667ZM11.375 2.08333H13.4583C14.1045 2.08412 14.7345 2.28477 15.2621 2.65775C15.7897 3.03074 16.189 3.5578 16.4052 4.16667H8.42812C8.64436 3.5578 9.04365 3.03074 9.57124 2.65775C10.0988 2.28477 10.7289 2.08412 11.375 2.08333ZM18.6667 19.7917C18.6667 20.6205 18.3374 21.4153 17.7514 22.0014C17.1653 22.5874 16.3705 22.9167 15.5417 22.9167H9.29167C8.46287 22.9167 7.66801 22.5874 7.08196 22.0014C6.49591 21.4153 6.16667 20.6205 6.16667 19.7917V6.25H18.6667V19.7917Z" fill="white"/>
<path d="M10.4167 16.3333C10.6929 16.3333 10.9579 16.2236 11.1532 16.0282C11.3486 15.8329 11.4583 15.5679 11.4583 15.2917V9.04167C11.4583 8.7654 11.3486 8.50045 11.1532 8.3051C10.9579 8.10975 10.6929 8 10.4167 8C10.1404 8 9.87545 8.10975 9.6801 8.3051C9.48475 8.50045 9.375 8.7654 9.375 9.04167V15.2917C9.375 15.5679 9.48475 15.8329 9.6801 16.0282C9.87545 16.2236 10.1404 16.3333 10.4167 16.3333Z" fill="white"/>
<path d="M14.0417 16.3333C14.3179 16.3333 14.5829 16.2236 14.7782 16.0282C14.9736 15.8329 15.0833 15.5679 15.0833 15.2917V9.04167C15.0833 8.7654 14.9736 8.50045 14.7782 8.3051C14.5829 8.10975 14.3179 8 14.0417 8C13.7654 8 13.5004 8.10975 13.3051 8.3051C13.1097 8.50045 13 8.7654 13 9.04167V15.2917C13 15.5679 13.1097 15.8329 13.3051 16.0282C13.5004 16.2236 13.7654 16.3333 14.0417 16.3333Z" fill="white"/>
</g>
<defs>
<clipPath id="clip0_12_45">
<rect width="25" height="25" fill="white"/>
</clipPath>
</defs>
</svg>
