<svg width="23" height="25" viewBox="0 0 23 25" fill="none" xmlns="http://www.w3.org/2000/svg">
<path d="M19.976 25C19.5907 24.9989 19.2093 24.9215 18.8541 24.7722C18.4988 24.6229 18.1767 24.4047 17.9062 24.1302L11.5 17.7615L5.09372 24.1344C4.68229 24.5518 4.15464 24.8356 3.57957 24.9487C3.00449 25.0619 2.40866 24.9992 1.86976 24.7688C1.3255 24.5498 0.859909 24.1719 0.533776 23.6843C0.207644 23.1967 0.0361297 22.622 0.0416323 22.0354V5.20833C0.0416323 3.827 0.590366 2.50224 1.56712 1.52549C2.54387 0.548734 3.86863 0 5.24997 0L17.75 0C18.4339 0 19.1112 0.134718 19.7431 0.396461C20.375 0.658204 20.9492 1.04185 21.4328 1.52549C21.9165 2.00912 22.3001 2.58329 22.5618 3.21519C22.8236 3.8471 22.9583 4.52437 22.9583 5.20833V22.0354C22.9641 22.6215 22.7932 23.1958 22.4679 23.6834C22.1425 24.171 21.6778 24.5492 21.1343 24.7688C20.7675 24.9222 20.3737 25.0008 19.976 25ZM5.24997 2.08333C4.42116 2.08333 3.62631 2.41257 3.04026 2.99863C2.45421 3.58468 2.12497 4.37953 2.12497 5.20833V22.0354C2.12459 22.209 2.17566 22.3788 2.27174 22.5234C2.36781 22.6679 2.50457 22.7808 2.66475 22.8476C2.82492 22.9145 3.00133 22.9324 3.17168 22.8991C3.34202 22.8658 3.49867 22.7827 3.62184 22.6604L10.7708 15.5552C10.966 15.3612 11.23 15.2523 11.5052 15.2523C11.7804 15.2523 12.0444 15.3612 12.2395 15.5552L19.3802 22.6583C19.5033 22.7806 19.66 22.8637 19.8303 22.897C20.0007 22.9304 20.1771 22.9124 20.3373 22.8456C20.4974 22.7787 20.6342 22.6658 20.7303 22.5213C20.8264 22.3767 20.8774 22.2069 20.8771 22.0333V5.20833C20.8771 4.37953 20.5478 3.58468 19.9618 2.99863C19.3757 2.41257 18.5809 2.08333 17.7521 2.08333H5.24997Z" fill="white"/>
</svg>
