<svg width="25" height="25" viewBox="0 0 25 25" fill="none" xmlns="http://www.w3.org/2000/svg">
<path d="M24.0302 9.30417C22.7374 8.0125 20.6342 8.0125 19.3425 9.30417L14.0256 14.6208C13.0422 15.6042 12.5005 16.9115 12.5005 18.3031V19.7917C12.5005 20.3677 12.9672 20.8333 13.5422 20.8333H15.0308C16.4215 20.8333 17.7289 20.2906 18.7143 19.3073L24.0312 13.9906C25.3229 12.699 25.3229 10.5948 24.0312 9.30312L24.0302 9.30417ZM22.5572 12.5187L17.2403 17.8354C16.6497 18.425 15.8642 18.751 15.0298 18.751H14.5829V18.3042C14.5829 17.4813 14.9162 16.6771 15.4975 16.0948L20.8144 10.7781C21.2946 10.2979 22.0759 10.2979 22.5551 10.7781C23.0353 11.2583 23.0353 12.0396 22.5551 12.5198L22.5572 12.5187ZM16.7007 6.12083C16.8444 5.56354 17.4111 5.22292 17.9705 5.37292C18.4268 5.48958 18.8643 5.66979 19.2727 5.90521C19.7706 6.19271 19.9415 6.83021 19.6539 7.32812C19.4602 7.66146 19.1112 7.84896 18.7508 7.84896C18.5747 7.84896 18.3956 7.80417 18.231 7.70937C17.9862 7.56771 17.7226 7.46042 17.4497 7.38854C16.8924 7.24479 16.558 6.67604 16.7017 6.11979L16.7007 6.12083ZM21.179 22.3969C20.2498 24.0021 18.5216 25 16.6674 25H8.33368C5.46169 25 3.12513 22.6635 3.12513 19.7917V17.7083C3.12513 17.1323 3.59182 16.6667 4.16684 16.6667C4.74186 16.6667 5.20855 17.1323 5.20855 17.7083V19.7917C5.20855 21.5146 6.61069 22.9167 8.33368 22.9167H16.6674C17.7799 22.9167 18.8175 22.3177 19.3748 21.3531C19.6633 20.8552 20.3008 20.6833 20.7977 20.974C21.2967 21.2615 21.4676 21.899 21.179 22.3969ZM14.5839 7.29167C14.5839 3.27187 11.313 0 7.29197 0C3.27097 0 0 3.27187 0 7.29167C0 11.3115 3.27097 14.5833 7.29197 14.5833C11.313 14.5833 14.5839 11.3115 14.5839 7.29167ZM2.08342 7.29167C2.08342 4.41979 4.41998 2.08333 7.29197 2.08333C10.164 2.08333 12.5005 4.41979 12.5005 7.29167C12.5005 10.1635 10.164 12.5 7.29197 12.5C4.41998 12.5 2.08342 10.1635 2.08342 7.29167ZM8.31285 9.71458C7.84199 10.1792 7.21697 10.4135 6.5909 10.4135C5.96483 10.4135 5.33668 10.1792 4.85749 9.71146L3.67828 8.55729C3.2668 8.15417 3.26055 7.49479 3.66265 7.08437C4.06475 6.67292 4.72415 6.66667 5.13563 7.06771L6.31485 8.22188C6.46485 8.36979 6.70965 8.36875 6.85862 8.22188L9.17434 5.99896C9.58894 5.60208 10.2494 5.61354 10.6473 6.02917C11.0463 6.44375 11.0328 7.10313 10.6171 7.50208L8.31285 9.71458Z" fill="white"/>
</svg>
