<svg width="25" height="24" viewBox="0 0 25 24" fill="none" xmlns="http://www.w3.org/2000/svg">
<path d="M25 16.6673V21.8756C25 22.7045 24.6708 23.4993 24.0847 24.0854C23.4987 24.6714 22.7038 25.0007 21.875 25.0007H16.6667C15.2053 24.9992 13.77 24.6134 12.5048 23.8821C11.2396 23.1507 10.189 22.0996 9.45833 20.834C10.2436 20.8284 11.0262 20.7418 11.7937 20.5756C12.3783 21.3065 13.1198 21.8965 13.9633 22.3019C14.8069 22.7072 15.7308 22.9176 16.6667 22.9173H21.875C22.1513 22.9173 22.4162 22.8076 22.6116 22.6122C22.8069 22.4169 22.9167 22.1519 22.9167 21.8756V16.6673C22.9164 15.7311 22.7054 14.807 22.2993 13.9634C21.8932 13.1198 21.3025 12.3785 20.5708 11.7944C20.7384 11.027 20.8263 10.2444 20.8333 9.45898C22.0989 10.1897 23.1501 11.2403 23.8814 12.5055C24.6127 13.7707 24.9985 15.206 25 16.6673ZM18.726 10.0538C18.8235 8.71173 18.6309 7.36444 18.1613 6.10346C17.6917 4.84247 16.9562 3.69734 16.0048 2.74588C15.0533 1.79441 13.9082 1.05891 12.6472 0.589353C11.3862 0.119795 10.0389 -0.072817 8.69687 0.0246056C6.31866 0.296202 4.1218 1.42791 2.51997 3.20663C0.918153 4.98535 0.0219033 7.28833 0 9.6819L0 14.9319C0 17.5694 1.56979 18.7506 3.125 18.7506H9.0625C11.4571 18.73 13.7615 17.8344 15.5414 16.2325C17.3214 14.6305 18.4541 12.433 18.726 10.0538ZM14.5312 4.22044C15.2708 4.96159 15.8425 5.85294 16.2076 6.83418C16.5728 7.81541 16.723 8.86364 16.6479 9.90794C16.4256 11.7659 15.5318 13.4786 14.1347 14.7235C12.7377 15.9684 10.9337 16.6597 9.0625 16.6673H3.125C2.15833 16.6673 2.08333 15.3392 2.08333 14.9319V9.6819C2.09202 7.81146 2.78401 6.00867 4.02908 4.61281C5.27415 3.21695 6.98645 2.32426 8.84375 2.10273C9.01667 2.09023 9.18958 2.08398 9.3625 2.08398C10.3222 2.08309 11.2726 2.27131 12.1595 2.63789C13.0463 3.00448 13.8523 3.54224 14.5312 4.22044Z" fill="white"/>
</svg>
