<svg width="25" height="25" viewBox="0 0 25 25" fill="none" xmlns="http://www.w3.org/2000/svg">
<path d="M24.0823 0.918129C23.7089 0.540136 23.2442 0.264853 22.7333 0.118875C22.2224 -0.027103 21.6824 -0.0388409 21.1656 0.0847954L4.49898 3.59521C3.53916 3.72684 2.63516 4.12383 1.88877 4.74148C1.14239 5.35912 0.583264 6.17288 0.27437 7.09111C-0.0345242 8.00935 -0.0809195 8.99559 0.140408 9.93877C0.361736 10.8819 0.841996 11.7446 1.5271 12.4296L3.31669 14.2181C3.41355 14.315 3.49036 14.4299 3.54273 14.5565C3.5951 14.683 3.622 14.8187 3.6219 14.9556V18.2556C3.62419 18.7196 3.73101 19.1771 3.9344 19.5942L3.92606 19.6015L3.95315 19.6285C4.25837 20.2422 4.75688 20.7385 5.3719 21.041L5.39898 21.0681L5.40627 21.0598C5.82331 21.2632 6.28082 21.37 6.74481 21.3723H10.0448C10.3209 21.3721 10.5858 21.4815 10.7813 21.6765L12.5698 23.465C13.0495 23.95 13.6205 24.3353 14.2498 24.5987C14.8791 24.862 15.5543 24.9982 16.2365 24.9994C16.805 24.9987 17.3696 24.9058 17.9084 24.7244C18.8182 24.4256 19.6264 23.8786 20.2419 23.1449C20.8574 22.4113 21.2556 21.5202 21.3917 20.5723L24.9073 3.86917C25.0374 3.34796 25.0297 2.8019 24.8851 2.28455C24.7404 1.7672 24.4638 1.29633 24.0823 0.918129ZM4.79169 12.7473L3.00106 10.9588C2.5841 10.5518 2.29187 10.0344 2.15865 9.46725C2.02544 8.90007 2.05677 8.30666 2.24898 7.75667C2.43533 7.19242 2.77982 6.69357 3.24148 6.31944C3.70313 5.94532 4.26253 5.71166 4.85315 5.64625L21.3542 2.1723L5.70315 17.8254V14.9556C5.70472 14.5456 5.62498 14.1393 5.46853 13.7602C5.31208 13.3811 5.08203 13.0369 4.79169 12.7473ZM19.3448 20.216C19.2648 20.7914 19.0261 21.3331 18.6553 21.7803C18.2846 22.2274 17.7966 22.5624 17.246 22.7477C16.6954 22.9329 16.1041 22.961 15.5385 22.8288C14.9729 22.6966 14.4552 22.4094 14.0438 21.9994L12.2521 20.2077C11.9629 19.9169 11.6189 19.6864 11.24 19.5294C10.8612 19.3724 10.4549 19.2921 10.0448 19.2931H7.17502L22.8281 3.64521L19.3448 20.216Z" fill="white"/>
</svg>
